<?xml version="1.0" encoding="utf-8"?>
<svg width="960px" height="857px" viewBox="0 0 960 857" version="1.1" xmlns:xlink="http://www.w3.org/1999/xlink" xmlns="http://www.w3.org/2000/svg">
  <path d="M550.899 89.6303C688.872 63.0367 927.672 19.699 956.858 65.9915C986.045 111.299 803.85 245.252 741.939 411.708C679.143 577.18 735.748 775.154 688.872 835.236C641.112 896.303 489.872 819.477 403.197 720.982C315.637 622.487 292.642 502.324 243.997 442.242C195.353 382.16 121.944 382.16 70.6465 341.777C19.3488 301.394 -8.95343 221.613 2.54437 145.772C13.1577 70.9163 63.5709 0.98494 125.482 0C188.277 0 263.455 67.9615 319.175 97.5099C375.779 127.058 412.926 117.209 550.899 89.6303L550.899 89.6303Z" id="Shape" fill="#FC4850" stroke="none" />
</svg>